<?xml version="1.0" encoding="UTF-8"?>
<!DOCTYPE svg PUBLIC "-//W3C//DTD SVG 1.1//EN" "http://www.w3.org/Graphics/SVG/1.1/DTD/svg11.dtd">
<!-- Creator: CorelDRAW 2019 (64-Bit) -->
<svg xmlns="http://www.w3.org/2000/svg" xml:space="preserve" width="512px" height="512px" version="1.1" style="shape-rendering:geometricPrecision; text-rendering:geometricPrecision; image-rendering:optimizeQuality; fill-rule:evenodd; clip-rule:evenodd"
viewBox="0 0 511.06 511.22"
 xmlns:xlink="http://www.w3.org/1999/xlink"
 xmlns:xodm="http://www.corel.com/coreldraw/odm/2003">
 <defs>
  <style type="text/css">
   <![CDATA[
    .fil0 {fill:none}
    .fil2 {fill:#999999}
    .fil1 {fill:white}
   ]]>
  </style>
 </defs>
 <g id="Layer_x0020_1">
  <metadata id="CorelCorpID_0Corel-Layer"/>
  <g id="_2429162965168">
   <rect class="fil0" width="511.06" height="511.05"/>
   <path class="fil1" d="M32.18 511.17l47.74 -0.06c-0.41,-33.21 11.12,-36.98 25.45,-56.22 11.29,-15.15 23.72,-30.89 35.57,-46.23 15.62,-20.22 18.41,-27.5 29.28,-52.56 4.69,-10.82 18.83,-50.53 27.02,-54.18 6.07,-0.84 26.06,37.63 36.27,50.19 6.98,8.6 8.69,7.14 15.26,13.2 -1.12,4.99 -13.01,25.34 -16.72,31.62 -6.96,11.8 -6.54,21.59 -9.87,37.35 -5.45,25.71 -16.01,52.49 -18.14,76.94l82.87 -0.28c5.55,-18.92 -28.73,-4.68 -34.98,-30.25 5.79,-10.14 11.12,-7.84 18.28,-25.63 4.21,-10.47 8.73,-21.11 12.84,-31.25 28.86,-71.11 32.99,-58.04 -3.96,-123.6 -5.24,-9.3 -10.47,-19.3 -15.71,-28.32 -7.28,-12.55 -9.61,-14.25 -8.19,-34.55 9.55,-4.65 6.54,3.34 13.21,-10.63l15.76 -30.43c5.97,-11.46 2.97,-6.92 -1.92,-15.91l8.35 -9.34c13.04,4.48 17.83,16.14 34.59,9.63 18.44,-7.16 13.41,-24.61 21.19,-27.29l2.67 11.58 29.53 -7.32c-0.52,-23.04 -10.58,-26.63 1.18,-52.69l79.12 -0.07 0 -15.76 30.77 0 0 -8.45 -30.77 0 0 -11.45 -8.48 8.1 -113.65 0c-6.93,0 -28.75,2.33 -22.23,-4.47 2.59,-2.71 3.11,-0.3 8.15,-1.66l5.05 -20.54c-3.17,-5.05 -3.79,0.83 -7.9,-9.73 -4.4,-11.32 -13.77,-20.29 -28.3,-26.58 -10.8,-4.69 -21.8,-5.56 -32.16,0.11 -13.37,7.33 -18.25,16.47 -19.84,26.22 -0.63,3.88 -0.01,6.82 0.33,15.49 0.34,8.66 0.51,6.42 7.83,11.27 -3.5,14.03 -13.46,3.83 -26.51,11.31 -8.91,5.12 -13.79,10.91 -19.39,18.38 -6.04,8.07 -21.18,40.42 -24.61,50.92l-14.72 0.32 -18.59 57.52 12.46 8.4c1.84,17.48 -14.77,28.49 -17.48,35.91 -17.92,49.23 -11.07,22.03 -21.03,31.49 -3.4,3.22 -4.72,40.48 -5.31,47.98 -2.03,25.59 -2.49,23.14 -17.01,35.65 -15.7,13.53 -27.32,48.94 -35.93,70.06 -4.32,10.59 -13.03,26.07 -14.66,37.8 -1.74,12.58 2.9,9.89 -3.46,20.61 -2.55,4.31 -7.8,12.5 -9.25,17.4z"/>
   <path class="fil2" d="M299.57 511.05l211.49 0 0 -511.05 -222.96 0c2.8,0.77 5.58,1.76 8.34,2.96 15.52,6.72 28.66,17.36 34.91,33.46 0.16,0.39 0.33,0.85 0.53,1.32 2.59,1.47 4.56,3.5 6.32,6.32l2.79 4.44 -4.03 16.42 108.46 0 25.83 -24.68 0 28.03 30.78 0 0 33.22 -30.78 0 0 15.76 -83.13 0.08c-1.41,4.32 -2.09,8.69 -1.26,13.57 0.58,3.42 1.52,6.84 2.22,10.25 1.11,5.39 1.75,10.69 1.88,16.2l0.22 9.91 -43.91 10.89c-4.18,6.53 -10.1,11.14 -17.6,14.06 -8.86,3.44 -17.49,3.93 -26.27,0.03 -1.25,-0.55 -2.47,-1.21 -3.68,-1.93 -0.53,4.07 -2.58,7.85 -4.55,11.66l-15.67 30.26c-3.37,7.07 -5.79,12.7 -12.4,14.86 -0.05,7.1 1.5,9.1 7,18.58 5.44,9.38 10.46,19 15.79,28.45 6.83,12.14 14.24,24.5 20.31,37.01 4.23,8.75 7.66,17.66 7.92,27.5 0.27,10.05 -2.89,19.67 -6.51,28.92 -5.37,13.72 -11.53,27.24 -17.08,40.92 -4.23,10.42 -8.63,20.77 -12.83,31.21 -3.87,9.64 -7.46,15.26 -14.96,22.27 -0.12,0.11 -0.23,0.21 -0.34,0.32 1.49,1.41 3.53,2.17 6.1,2.92 8.7,2.54 18.03,2.85 23.93,11.01 3.24,4.49 4,9.67 3.14,14.85zm-207.26 0l99.31 0 0.08 -0.91c2.32,-26.67 12.82,-52.33 18.36,-78.43 3.2,-15.13 3.14,-27.22 11.33,-41.08 2.86,-4.86 5.69,-9.75 8.42,-14.68 0.99,-1.77 2.39,-4.18 3.7,-6.63 -3.73,-2.72 -6.6,-5.68 -9.62,-9.4 -5.95,-7.32 -11.31,-16.55 -16.32,-24.6 -1.79,-2.86 -5.48,-9.04 -9.04,-14.33 -2.46,4.93 -4.84,10.44 -5.94,13.01 -3.83,8.95 -7.15,18.14 -11.01,27.03 -4.39,10.14 -8.68,20.63 -14.01,30.32 -4.85,8.85 -10.66,16.91 -16.82,24.88 -11.84,15.33 -23.87,30.53 -35.44,46.07 -15.08,20.22 -23.35,20.67 -23,48.66l0 0.09z"/>
   <path class="fil1" d="M0 511.05l19.3 0 1 -3.39c2.02,-6.85 6.81,-14.03 10.47,-20.21 0.48,-0.8 1.28,-2.11 1.71,-3.12 -0.09,-1.1 -0.27,-2.23 -0.33,-3.35 -0.18,-3.19 0.03,-6.36 0.47,-9.52 1.98,-14.29 10.08,-27.59 15.46,-40.78 9.24,-22.67 20.81,-58.82 39.31,-74.77 2.1,-1.8 8.8,-6.93 10.19,-9.08 1.56,-2.44 2.33,-15.25 2.56,-18.16 0.61,-7.79 0.87,-15.66 1.44,-23.48 0.41,-5.54 0.88,-11.16 1.66,-16.67 0.78,-5.49 1.83,-11.85 6.03,-15.84 3.02,-2.86 6.33,-4.73 9.77,-5.38 0.23,-0.56 0.44,-1.09 0.63,-1.55 2.68,-6.51 5.11,-13.18 7.52,-19.8 3.15,-8.64 13.83,-16.4 16.34,-25.36l-14.34 -9.66 24.18 -74.78 15.1 -0.33c2.61,-6.41 5.7,-12.91 8.51,-18.82 3.99,-8.38 9.36,-19.94 14.88,-27.31 6.87,-9.18 13,-15.88 23.14,-21.7 4.16,-2.39 8.46,-3.79 13.08,-4.41 -0.43,-2.21 -0.53,-4.52 -0.62,-6.95 -0.23,-5.87 -1.12,-12.16 -0.18,-17.96 2.64,-16.17 11.92,-27.31 26.12,-35.09 2.78,-1.52 5.6,-2.71 8.45,-3.58l-261.85 0 0 511.05z"/>
  </g>
 </g>
</svg>
